<?xml version="1.0" encoding="UTF-8" standalone="no"?>
<!DOCTYPE svg PUBLIC "-//W3C//DTD SVG 1.1//EN"
 "http://www.w3.org/Graphics/SVG/1.1/DTD/svg11.dtd">
<!-- Generated by graphviz version 2.40.1 (20161225.0304)
 -->
<!-- Title: %3 Pages: 1 -->
<svg width="1000pt" height="1038pt"
 viewBox="0.00 0.00 1000.00 1037.50" xmlns="http://www.w3.org/2000/svg" xmlns:xlink="http://www.w3.org/1999/xlink">
<g id="graph0" class="graph" transform="scale(1 1) rotate(0) translate(4 1033.5)">
<title>%3</title>
<polygon fill="#ffffff" stroke="transparent" points="-4,4 -4,-1033.5 996,-1033.5 996,4 -4,4"/>
<!-- experiments -->
<g id="node1" class="node">
<title>experiments</title>
<polygon fill="none" stroke="#000000" points="8,-539.5 8,-567.5 170,-567.5 170,-539.5 8,-539.5"/>
<text text-anchor="start" x="41.5" y="-550.7" font-family="Helvetica,sans-Serif" font-weight="bold" font-size="16.00" fill="#000000">experiments</text>
<polygon fill="none" stroke="#000000" points="8,-514.5 8,-539.5 170,-539.5 170,-514.5 8,-514.5"/>
<text text-anchor="start" x="13" y="-524.3" font-family="Helvetica,sans-Serif" text-decoration="underline" font-size="14.00" fill="#000000">hash</text>
<text text-anchor="start" x="43" y="-524.3" font-family="Helvetica,sans-Serif" font-size="14.00" fill="#000000"> [VARCHAR]</text>
<polygon fill="none" stroke="#000000" points="8,-489.5 8,-514.5 170,-514.5 170,-489.5 8,-489.5"/>
<text text-anchor="start" x="13" y="-499.3" font-family="Helvetica,sans-Serif" font-size="14.00" fill="#000000">last_access</text>
<text text-anchor="start" x="84" y="-499.3" font-family="Helvetica,sans-Serif" font-size="14.00" fill="#000000"> [DATETIME]</text>
</g>
<!-- uploads -->
<g id="node2" class="node">
<title>uploads</title>
<polygon fill="none" stroke="#000000" points="259.5,-997.5 259.5,-1025.5 452.5,-1025.5 452.5,-997.5 259.5,-997.5"/>
<text text-anchor="start" x="325" y="-1008.7" font-family="Helvetica,sans-Serif" font-weight="bold" font-size="16.00" fill="#000000">uploads</text>
<polygon fill="none" stroke="#000000" points="259.5,-972.5 259.5,-997.5 452.5,-997.5 452.5,-972.5 259.5,-972.5"/>
<text text-anchor="start" x="264.5" y="-982.3" font-family="Helvetica,sans-Serif" text-decoration="underline" font-size="14.00" fill="#000000">id</text>
<text text-anchor="start" x="275.5" y="-982.3" font-family="Helvetica,sans-Serif" font-size="14.00" fill="#000000"> [INTEGER]</text>
<polygon fill="none" stroke="#000000" points="259.5,-947.5 259.5,-972.5 452.5,-972.5 452.5,-947.5 259.5,-947.5"/>
<text text-anchor="start" x="264.5" y="-957.3" font-family="Helvetica,sans-Serif" font-size="14.00" fill="#000000">filename</text>
<text text-anchor="start" x="316.5" y="-957.3" font-family="Helvetica,sans-Serif" font-size="14.00" fill="#000000"> [VARCHAR]</text>
<polygon fill="none" stroke="#000000" points="259.5,-922.5 259.5,-947.5 452.5,-947.5 452.5,-922.5 259.5,-922.5"/>
<text text-anchor="start" x="264.5" y="-932.3" font-family="Helvetica,sans-Serif" font-size="14.00" fill="#000000">experiment_hash</text>
<text text-anchor="start" x="369.5" y="-932.3" font-family="Helvetica,sans-Serif" font-size="14.00" fill="#000000"> [VARCHAR]</text>
<polygon fill="none" stroke="#000000" points="259.5,-897.5 259.5,-922.5 452.5,-922.5 452.5,-897.5 259.5,-897.5"/>
<text text-anchor="start" x="264.5" y="-907.3" font-family="Helvetica,sans-Serif" font-size="14.00" fill="#000000">submitted_ip</text>
<text text-anchor="start" x="342.5" y="-907.3" font-family="Helvetica,sans-Serif" font-size="14.00" fill="#000000"> [VARCHAR]</text>
<polygon fill="none" stroke="#000000" points="259.5,-872.5 259.5,-897.5 452.5,-897.5 452.5,-872.5 259.5,-872.5"/>
<text text-anchor="start" x="264.5" y="-882.3" font-family="Helvetica,sans-Serif" font-size="14.00" fill="#000000">repository_key</text>
<text text-anchor="start" x="352.5" y="-882.3" font-family="Helvetica,sans-Serif" font-size="14.00" fill="#000000"> [VARCHAR]</text>
<polygon fill="none" stroke="#000000" points="259.5,-847.5 259.5,-872.5 452.5,-872.5 452.5,-847.5 259.5,-847.5"/>
<text text-anchor="start" x="264.5" y="-857.3" font-family="Helvetica,sans-Serif" font-size="14.00" fill="#000000">timestamp</text>
<text text-anchor="start" x="328.5" y="-857.3" font-family="Helvetica,sans-Serif" font-size="14.00" fill="#000000"> [DATETIME]</text>
</g>
<!-- experiments&#45;&#45;uploads -->
<g id="edge1" class="edge">
<title>experiments&#45;&#45;uploads</title>
<path fill="none" stroke="#7f7f7f" stroke-dasharray="5,2" d="M170.0834,-571.6238C172.9246,-574.4343 175.5832,-577.3921 178,-580.5 250.1032,-673.2236 190.7431,-733.6751 251,-834.5 252.7558,-837.4379 254.617,-840.3495 256.5676,-843.2296"/>
<text text-anchor="start" x="225.5676" y="-832.0296" font-family="Times,serif" font-size="14.00" fill="#000000">{0,1}</text>
<text text-anchor="start" x="145.0834" y="-575.4238" font-family="Times,serif" font-size="14.00" fill="#000000">0..N</text>
</g>
<!-- parameters -->
<g id="node3" class="node">
<title>parameters</title>
<polygon fill="none" stroke="#000000" points="259.5,-793.5 259.5,-821.5 452.5,-821.5 452.5,-793.5 259.5,-793.5"/>
<text text-anchor="start" x="312.5" y="-804.7" font-family="Helvetica,sans-Serif" font-weight="bold" font-size="16.00" fill="#000000">parameters</text>
<polygon fill="none" stroke="#000000" points="259.5,-768.5 259.5,-793.5 452.5,-793.5 452.5,-768.5 259.5,-768.5"/>
<text text-anchor="start" x="264.5" y="-778.3" font-family="Helvetica,sans-Serif" text-decoration="underline" font-size="14.00" fill="#000000">id</text>
<text text-anchor="start" x="275.5" y="-778.3" font-family="Helvetica,sans-Serif" font-size="14.00" fill="#000000"> [INTEGER]</text>
<polygon fill="none" stroke="#000000" points="259.5,-743.5 259.5,-768.5 452.5,-768.5 452.5,-743.5 259.5,-743.5"/>
<text text-anchor="start" x="264.5" y="-753.3" font-family="Helvetica,sans-Serif" font-size="14.00" fill="#000000">experiment_hash</text>
<text text-anchor="start" x="369.5" y="-753.3" font-family="Helvetica,sans-Serif" font-size="14.00" fill="#000000"> [VARCHAR]</text>
<polygon fill="none" stroke="#000000" points="259.5,-718.5 259.5,-743.5 452.5,-743.5 452.5,-718.5 259.5,-718.5"/>
<text text-anchor="start" x="264.5" y="-728.3" font-family="Helvetica,sans-Serif" font-size="14.00" fill="#000000">name</text>
<text text-anchor="start" x="299.5" y="-728.3" font-family="Helvetica,sans-Serif" font-size="14.00" fill="#000000"> [VARCHAR]</text>
<polygon fill="none" stroke="#000000" points="259.5,-693.5 259.5,-718.5 452.5,-718.5 452.5,-693.5 259.5,-693.5"/>
<text text-anchor="start" x="264.5" y="-703.3" font-family="Helvetica,sans-Serif" font-size="14.00" fill="#000000">description</text>
<text text-anchor="start" x="330.5" y="-703.3" font-family="Helvetica,sans-Serif" font-size="14.00" fill="#000000"> [VARCHAR]</text>
<polygon fill="none" stroke="#000000" points="259.5,-668.5 259.5,-693.5 452.5,-693.5 452.5,-668.5 259.5,-668.5"/>
<text text-anchor="start" x="264.5" y="-678.3" font-family="Helvetica,sans-Serif" font-size="14.00" fill="#000000">optional</text>
<text text-anchor="start" x="312.5" y="-678.3" font-family="Helvetica,sans-Serif" font-size="14.00" fill="#000000"> [BOOLEAN]</text>
<polygon fill="none" stroke="#000000" points="259.5,-643.5 259.5,-668.5 452.5,-668.5 452.5,-643.5 259.5,-643.5"/>
<text text-anchor="start" x="264.5" y="-653.3" font-family="Helvetica,sans-Serif" font-size="14.00" fill="#000000">default</text>
<text text-anchor="start" x="305.5" y="-653.3" font-family="Helvetica,sans-Serif" font-size="14.00" fill="#000000"> [VARCHAR]</text>
</g>
<!-- experiments&#45;&#45;parameters -->
<g id="edge2" class="edge">
<title>experiments&#45;&#45;parameters</title>
<path fill="none" stroke="#7f7f7f" stroke-dasharray="5,2" d="M164.8585,-571.5519C169.3591,-574.4966 173.7716,-577.4911 178,-580.5 203.1225,-598.3771 228.9724,-619.0361 252.9037,-639.2498"/>
<text text-anchor="start" x="221.9037" y="-628.0498" font-family="Times,serif" font-size="14.00" fill="#000000">{0,1}</text>
<text text-anchor="start" x="164.8585" y="-575.3519" font-family="Times,serif" font-size="14.00" fill="#000000">0..N</text>
</g>
<!-- paths -->
<g id="node4" class="node">
<title>paths</title>
<polygon fill="none" stroke="#000000" points="259.5,-589.5 259.5,-617.5 452.5,-617.5 452.5,-589.5 259.5,-589.5"/>
<text text-anchor="start" x="334.5" y="-600.7" font-family="Helvetica,sans-Serif" font-weight="bold" font-size="16.00" fill="#000000">paths</text>
<polygon fill="none" stroke="#000000" points="259.5,-564.5 259.5,-589.5 452.5,-589.5 452.5,-564.5 259.5,-564.5"/>
<text text-anchor="start" x="264.5" y="-574.3" font-family="Helvetica,sans-Serif" text-decoration="underline" font-size="14.00" fill="#000000">id</text>
<text text-anchor="start" x="275.5" y="-574.3" font-family="Helvetica,sans-Serif" font-size="14.00" fill="#000000"> [INTEGER]</text>
<polygon fill="none" stroke="#000000" points="259.5,-539.5 259.5,-564.5 452.5,-564.5 452.5,-539.5 259.5,-539.5"/>
<text text-anchor="start" x="264.5" y="-549.3" font-family="Helvetica,sans-Serif" font-size="14.00" fill="#000000">experiment_hash</text>
<text text-anchor="start" x="369.5" y="-549.3" font-family="Helvetica,sans-Serif" font-size="14.00" fill="#000000"> [VARCHAR]</text>
<polygon fill="none" stroke="#000000" points="259.5,-514.5 259.5,-539.5 452.5,-539.5 452.5,-514.5 259.5,-514.5"/>
<text text-anchor="start" x="264.5" y="-524.3" font-family="Helvetica,sans-Serif" font-size="14.00" fill="#000000">is_input</text>
<text text-anchor="start" x="311.5" y="-524.3" font-family="Helvetica,sans-Serif" font-size="14.00" fill="#000000"> [BOOLEAN]</text>
<polygon fill="none" stroke="#000000" points="259.5,-489.5 259.5,-514.5 452.5,-514.5 452.5,-489.5 259.5,-489.5"/>
<text text-anchor="start" x="264.5" y="-499.3" font-family="Helvetica,sans-Serif" font-size="14.00" fill="#000000">is_output</text>
<text text-anchor="start" x="319.5" y="-499.3" font-family="Helvetica,sans-Serif" font-size="14.00" fill="#000000"> [BOOLEAN]</text>
<polygon fill="none" stroke="#000000" points="259.5,-464.5 259.5,-489.5 452.5,-489.5 452.5,-464.5 259.5,-464.5"/>
<text text-anchor="start" x="264.5" y="-474.3" font-family="Helvetica,sans-Serif" font-size="14.00" fill="#000000">name</text>
<text text-anchor="start" x="299.5" y="-474.3" font-family="Helvetica,sans-Serif" font-size="14.00" fill="#000000"> [VARCHAR]</text>
<polygon fill="none" stroke="#000000" points="259.5,-439.5 259.5,-464.5 452.5,-464.5 452.5,-439.5 259.5,-439.5"/>
<text text-anchor="start" x="264.5" y="-449.3" font-family="Helvetica,sans-Serif" font-size="14.00" fill="#000000">path</text>
<text text-anchor="start" x="291.5" y="-449.3" font-family="Helvetica,sans-Serif" font-size="14.00" fill="#000000"> [VARCHAR]</text>
</g>
<!-- experiments&#45;&#45;paths -->
<g id="edge3" class="edge">
<title>experiments&#45;&#45;paths</title>
<path fill="none" stroke="#7f7f7f" stroke-dasharray="5,2" d="M178.1112,-528.5C201.4137,-528.5 226.7466,-528.5 250.7802,-528.5"/>
<text text-anchor="start" x="219.7802" y="-517.3" font-family="Times,serif" font-size="14.00" fill="#000000">{0,1}</text>
<text text-anchor="start" x="178.1112" y="-517.3" font-family="Times,serif" font-size="14.00" fill="#000000">0..N</text>
</g>
<!-- runs -->
<g id="node5" class="node">
<title>runs</title>
<polygon fill="none" stroke="#000000" points="541.5,-487.5 541.5,-515.5 734.5,-515.5 734.5,-487.5 541.5,-487.5"/>
<text text-anchor="start" x="620.5" y="-498.7" font-family="Helvetica,sans-Serif" font-weight="bold" font-size="16.00" fill="#000000">runs</text>
<polygon fill="none" stroke="#000000" points="541.5,-462.5 541.5,-487.5 734.5,-487.5 734.5,-462.5 541.5,-462.5"/>
<text text-anchor="start" x="546.5" y="-472.3" font-family="Helvetica,sans-Serif" text-decoration="underline" font-size="14.00" fill="#000000">id</text>
<text text-anchor="start" x="557.5" y="-472.3" font-family="Helvetica,sans-Serif" font-size="14.00" fill="#000000"> [INTEGER]</text>
<polygon fill="none" stroke="#000000" points="541.5,-437.5 541.5,-462.5 734.5,-462.5 734.5,-437.5 541.5,-437.5"/>
<text text-anchor="start" x="546.5" y="-447.3" font-family="Helvetica,sans-Serif" font-size="14.00" fill="#000000">experiment_hash</text>
<text text-anchor="start" x="651.5" y="-447.3" font-family="Helvetica,sans-Serif" font-size="14.00" fill="#000000"> [VARCHAR]</text>
<polygon fill="none" stroke="#000000" points="541.5,-412.5 541.5,-437.5 734.5,-437.5 734.5,-412.5 541.5,-412.5"/>
<text text-anchor="start" x="546.5" y="-422.3" font-family="Helvetica,sans-Serif" font-size="14.00" fill="#000000">upload_id</text>
<text text-anchor="start" x="605.5" y="-422.3" font-family="Helvetica,sans-Serif" font-size="14.00" fill="#000000"> [INTEGER]</text>
<polygon fill="none" stroke="#000000" points="541.5,-387.5 541.5,-412.5 734.5,-412.5 734.5,-387.5 541.5,-387.5"/>
<text text-anchor="start" x="546.5" y="-397.3" font-family="Helvetica,sans-Serif" font-size="14.00" fill="#000000">submitted</text>
<text text-anchor="start" x="606.5" y="-397.3" font-family="Helvetica,sans-Serif" font-size="14.00" fill="#000000"> [DATETIME]</text>
<polygon fill="none" stroke="#000000" points="541.5,-362.5 541.5,-387.5 734.5,-387.5 734.5,-362.5 541.5,-362.5"/>
<text text-anchor="start" x="546.5" y="-372.3" font-family="Helvetica,sans-Serif" font-size="14.00" fill="#000000">started</text>
<text text-anchor="start" x="588.5" y="-372.3" font-family="Helvetica,sans-Serif" font-size="14.00" fill="#000000"> [DATETIME]</text>
<polygon fill="none" stroke="#000000" points="541.5,-337.5 541.5,-362.5 734.5,-362.5 734.5,-337.5 541.5,-337.5"/>
<text text-anchor="start" x="546.5" y="-347.3" font-family="Helvetica,sans-Serif" font-size="14.00" fill="#000000">done</text>
<text text-anchor="start" x="577.5" y="-347.3" font-family="Helvetica,sans-Serif" font-size="14.00" fill="#000000"> [DATETIME]</text>
</g>
<!-- experiments&#45;&#45;runs -->
<g id="edge4" class="edge">
<title>experiments&#45;&#45;runs</title>
<path fill="none" stroke="#7f7f7f" stroke-dasharray="5,2" d="M140.7718,-485.2877C170.8923,-463.0023 210.7652,-438.1115 251,-426.5 343.5139,-399.801 453.7543,-403.034 532.7791,-411.0317"/>
<text text-anchor="start" x="501.7791" y="-399.8317" font-family="Times,serif" font-size="14.00" fill="#000000">{0,1}</text>
<text text-anchor="start" x="140.7718" y="-474.0877" font-family="Times,serif" font-size="14.00" fill="#000000">0..N</text>
</g>
<!-- build_logs -->
<g id="node6" class="node">
<title>build_logs</title>
<polygon fill="none" stroke="#000000" points="259.5,-347.5 259.5,-375.5 452.5,-375.5 452.5,-347.5 259.5,-347.5"/>
<text text-anchor="start" x="315.5" y="-358.7" font-family="Helvetica,sans-Serif" font-weight="bold" font-size="16.00" fill="#000000">build_logs</text>
<polygon fill="none" stroke="#000000" points="259.5,-322.5 259.5,-347.5 452.5,-347.5 452.5,-322.5 259.5,-322.5"/>
<text text-anchor="start" x="264.5" y="-332.3" font-family="Helvetica,sans-Serif" text-decoration="underline" font-size="14.00" fill="#000000">id</text>
<text text-anchor="start" x="275.5" y="-332.3" font-family="Helvetica,sans-Serif" font-size="14.00" fill="#000000"> [INTEGER]</text>
<polygon fill="none" stroke="#000000" points="259.5,-297.5 259.5,-322.5 452.5,-322.5 452.5,-297.5 259.5,-297.5"/>
<text text-anchor="start" x="264.5" y="-307.3" font-family="Helvetica,sans-Serif" font-size="14.00" fill="#000000">experiment_hash</text>
<text text-anchor="start" x="369.5" y="-307.3" font-family="Helvetica,sans-Serif" font-size="14.00" fill="#000000"> [VARCHAR]</text>
<polygon fill="none" stroke="#000000" points="259.5,-272.5 259.5,-297.5 452.5,-297.5 452.5,-272.5 259.5,-272.5"/>
<text text-anchor="start" x="264.5" y="-282.3" font-family="Helvetica,sans-Serif" font-size="14.00" fill="#000000">timestamp</text>
<text text-anchor="start" x="328.5" y="-282.3" font-family="Helvetica,sans-Serif" font-size="14.00" fill="#000000"> [DATETIME]</text>
<polygon fill="none" stroke="#000000" points="259.5,-247.5 259.5,-272.5 452.5,-272.5 452.5,-247.5 259.5,-247.5"/>
<text text-anchor="start" x="264.5" y="-257.3" font-family="Helvetica,sans-Serif" font-size="14.00" fill="#000000">line</text>
<text text-anchor="start" x="286.5" y="-257.3" font-family="Helvetica,sans-Serif" font-size="14.00" fill="#000000"> [VARCHAR]</text>
</g>
<!-- experiments&#45;&#45;build_logs -->
<g id="edge5" class="edge">
<title>experiments&#45;&#45;build_logs</title>
<path fill="none" stroke="#7f7f7f" stroke-dasharray="5,2" d="M123.2841,-485.2033C146.9149,-457.0348 180.0728,-420.6299 214,-393.5 225.4201,-384.368 237.9719,-375.5916 250.7379,-367.3973"/>
<text text-anchor="start" x="219.7379" y="-356.1973" font-family="Times,serif" font-size="14.00" fill="#000000">{0,1}</text>
<text text-anchor="start" x="98.2841" y="-474.0033" font-family="Times,serif" font-size="14.00" fill="#000000">0..N</text>
</g>
<!-- uploads&#45;&#45;runs -->
<g id="edge6" class="edge">
<title>uploads&#45;&#45;runs</title>
<path fill="none" stroke="#7f7f7f" stroke-dasharray="5,2" d="M453.6931,-843.2138C455.8768,-840.3285 457.9844,-837.4215 460,-834.5 528.3222,-735.4706 579.2116,-605.9192 608.5909,-519.6405"/>
<text text-anchor="start" x="577.5909" y="-523.4405" font-family="Times,serif" font-size="14.00" fill="#000000">{0,1}</text>
<text text-anchor="start" x="428.6931" y="-832.0138" font-family="Times,serif" font-size="14.00" fill="#000000">0..N</text>
</g>
<!-- run_logs -->
<g id="node7" class="node">
<title>run_logs</title>
<polygon fill="none" stroke="#000000" points="826.5,-770.5 826.5,-798.5 981.5,-798.5 981.5,-770.5 826.5,-770.5"/>
<text text-anchor="start" x="870" y="-781.7" font-family="Helvetica,sans-Serif" font-weight="bold" font-size="16.00" fill="#000000">run_logs</text>
<polygon fill="none" stroke="#000000" points="826.5,-745.5 826.5,-770.5 981.5,-770.5 981.5,-745.5 826.5,-745.5"/>
<text text-anchor="start" x="831.5" y="-755.3" font-family="Helvetica,sans-Serif" text-decoration="underline" font-size="14.00" fill="#000000">id</text>
<text text-anchor="start" x="842.5" y="-755.3" font-family="Helvetica,sans-Serif" font-size="14.00" fill="#000000"> [INTEGER]</text>
<polygon fill="none" stroke="#000000" points="826.5,-720.5 826.5,-745.5 981.5,-745.5 981.5,-720.5 826.5,-720.5"/>
<text text-anchor="start" x="831.5" y="-730.3" font-family="Helvetica,sans-Serif" font-size="14.00" fill="#000000">run_id</text>
<text text-anchor="start" x="869.5" y="-730.3" font-family="Helvetica,sans-Serif" font-size="14.00" fill="#000000"> [INTEGER]</text>
<polygon fill="none" stroke="#000000" points="826.5,-695.5 826.5,-720.5 981.5,-720.5 981.5,-695.5 826.5,-695.5"/>
<text text-anchor="start" x="831.5" y="-705.3" font-family="Helvetica,sans-Serif" font-size="14.00" fill="#000000">timestamp</text>
<text text-anchor="start" x="895.5" y="-705.3" font-family="Helvetica,sans-Serif" font-size="14.00" fill="#000000"> [DATETIME]</text>
<polygon fill="none" stroke="#000000" points="826.5,-670.5 826.5,-695.5 981.5,-695.5 981.5,-670.5 826.5,-670.5"/>
<text text-anchor="start" x="831.5" y="-680.3" font-family="Helvetica,sans-Serif" font-size="14.00" fill="#000000">line</text>
<text text-anchor="start" x="853.5" y="-680.3" font-family="Helvetica,sans-Serif" font-size="14.00" fill="#000000"> [VARCHAR]</text>
</g>
<!-- runs&#45;&#45;run_logs -->
<g id="edge7" class="edge">
<title>runs&#45;&#45;run_logs</title>
<path fill="none" stroke="#7f7f7f" stroke-dasharray="5,2" d="M702.4159,-519.5775C734.4091,-563.1153 774.7096,-614.6802 815,-657.5 817.7912,-660.4665 820.6865,-663.4394 823.6525,-666.3997"/>
<text text-anchor="start" x="792.6525" y="-655.1997" font-family="Times,serif" font-size="14.00" fill="#000000">{0,1}</text>
<text text-anchor="start" x="677.4159" y="-523.3775" font-family="Times,serif" font-size="14.00" fill="#000000">0..N</text>
</g>
<!-- run_parameters -->
<g id="node8" class="node">
<title>run_parameters</title>
<polygon fill="none" stroke="#000000" points="838.5,-616.5 838.5,-644.5 969.5,-644.5 969.5,-616.5 838.5,-616.5"/>
<text text-anchor="start" x="843.5" y="-627.7" font-family="Helvetica,sans-Serif" font-weight="bold" font-size="16.00" fill="#000000">run_parameters</text>
<polygon fill="none" stroke="#000000" points="838.5,-591.5 838.5,-616.5 969.5,-616.5 969.5,-591.5 838.5,-591.5"/>
<text text-anchor="start" x="843.5" y="-601.3" font-family="Helvetica,sans-Serif" text-decoration="underline" font-size="14.00" fill="#000000">id</text>
<text text-anchor="start" x="854.5" y="-601.3" font-family="Helvetica,sans-Serif" font-size="14.00" fill="#000000"> [INTEGER]</text>
<polygon fill="none" stroke="#000000" points="838.5,-566.5 838.5,-591.5 969.5,-591.5 969.5,-566.5 838.5,-566.5"/>
<text text-anchor="start" x="843.5" y="-576.3" font-family="Helvetica,sans-Serif" font-size="14.00" fill="#000000">run_id</text>
<text text-anchor="start" x="881.5" y="-576.3" font-family="Helvetica,sans-Serif" font-size="14.00" fill="#000000"> [INTEGER]</text>
<polygon fill="none" stroke="#000000" points="838.5,-541.5 838.5,-566.5 969.5,-566.5 969.5,-541.5 838.5,-541.5"/>
<text text-anchor="start" x="843.5" y="-551.3" font-family="Helvetica,sans-Serif" font-size="14.00" fill="#000000">name</text>
<text text-anchor="start" x="878.5" y="-551.3" font-family="Helvetica,sans-Serif" font-size="14.00" fill="#000000"> [VARCHAR]</text>
<polygon fill="none" stroke="#000000" points="838.5,-516.5 838.5,-541.5 969.5,-541.5 969.5,-516.5 838.5,-516.5"/>
<text text-anchor="start" x="843.5" y="-526.3" font-family="Helvetica,sans-Serif" font-size="14.00" fill="#000000">value</text>
<text text-anchor="start" x="876.5" y="-526.3" font-family="Helvetica,sans-Serif" font-size="14.00" fill="#000000"> [VARCHAR]</text>
</g>
<!-- runs&#45;&#45;run_parameters -->
<g id="edge8" class="edge">
<title>runs&#45;&#45;run_parameters</title>
<path fill="none" stroke="#7f7f7f" stroke-dasharray="5,2" d="M742.2484,-487.1438C771.4707,-504.062 802.6006,-522.0846 829.6367,-537.7371"/>
<text text-anchor="start" x="798.6367" y="-526.5371" font-family="Times,serif" font-size="14.00" fill="#000000">{0,1}</text>
<text text-anchor="start" x="742.2484" y="-475.9438" font-family="Times,serif" font-size="14.00" fill="#000000">0..N</text>
</g>
<!-- run_ports -->
<g id="node9" class="node">
<title>run_ports</title>
<polygon fill="none" stroke="#000000" points="823.5,-462.5 823.5,-490.5 984.5,-490.5 984.5,-462.5 823.5,-462.5"/>
<text text-anchor="start" x="866.5" y="-473.7" font-family="Helvetica,sans-Serif" font-weight="bold" font-size="16.00" fill="#000000">run_ports</text>
<polygon fill="none" stroke="#000000" points="823.5,-437.5 823.5,-462.5 984.5,-462.5 984.5,-437.5 823.5,-437.5"/>
<text text-anchor="start" x="828.5" y="-447.3" font-family="Helvetica,sans-Serif" text-decoration="underline" font-size="14.00" fill="#000000">port_number</text>
<text text-anchor="start" x="906.5" y="-447.3" font-family="Helvetica,sans-Serif" font-size="14.00" fill="#000000"> [INTEGER]</text>
<polygon fill="none" stroke="#000000" points="823.5,-412.5 823.5,-437.5 984.5,-437.5 984.5,-412.5 823.5,-412.5"/>
<text text-anchor="start" x="828.5" y="-422.3" font-family="Helvetica,sans-Serif" text-decoration="underline" font-size="14.00" fill="#000000">run_id</text>
<text text-anchor="start" x="866.5" y="-422.3" font-family="Helvetica,sans-Serif" font-size="14.00" fill="#000000"> [INTEGER]</text>
<polygon fill="none" stroke="#000000" points="823.5,-387.5 823.5,-412.5 984.5,-412.5 984.5,-387.5 823.5,-387.5"/>
<text text-anchor="start" x="828.5" y="-397.3" font-family="Helvetica,sans-Serif" font-size="14.00" fill="#000000">type</text>
<text text-anchor="start" x="854.5" y="-397.3" font-family="Helvetica,sans-Serif" font-size="14.00" fill="#000000"> [VARCHAR]</text>
<polygon fill="none" stroke="#000000" points="823.5,-362.5 823.5,-387.5 984.5,-387.5 984.5,-362.5 823.5,-362.5"/>
<text text-anchor="start" x="828.5" y="-372.3" font-family="Helvetica,sans-Serif" font-size="14.00" fill="#000000">map_host</text>
<text text-anchor="start" x="889.5" y="-372.3" font-family="Helvetica,sans-Serif" font-size="14.00" fill="#000000"> [VARCHAR]</text>
</g>
<!-- runs&#45;&#45;run_ports -->
<g id="edge9" class="edge">
<title>runs&#45;&#45;run_ports</title>
<path fill="none" stroke="#7f7f7f" stroke-dasharray="5,2" d="M742.2484,-426.5C766.2368,-426.5 791.5108,-426.5 814.7504,-426.5"/>
<text text-anchor="start" x="783.7504" y="-415.3" font-family="Times,serif" font-size="14.00" fill="#000000">{0,1}</text>
<text text-anchor="start" x="742.2484" y="-415.3" font-family="Times,serif" font-size="14.00" fill="#000000">0..N</text>
</g>
<!-- input_files -->
<g id="node10" class="node">
<title>input_files</title>
<polygon fill="none" stroke="#000000" points="842.5,-307.5 842.5,-335.5 965.5,-335.5 965.5,-307.5 842.5,-307.5"/>
<text text-anchor="start" x="863.5" y="-318.7" font-family="Helvetica,sans-Serif" font-weight="bold" font-size="16.00" fill="#000000">input_files</text>
<polygon fill="none" stroke="#000000" points="842.5,-282.5 842.5,-307.5 965.5,-307.5 965.5,-282.5 842.5,-282.5"/>
<text text-anchor="start" x="847.5" y="-292.3" font-family="Helvetica,sans-Serif" text-decoration="underline" font-size="14.00" fill="#000000">id</text>
<text text-anchor="start" x="858.5" y="-292.3" font-family="Helvetica,sans-Serif" font-size="14.00" fill="#000000"> [INTEGER]</text>
<polygon fill="none" stroke="#000000" points="842.5,-257.5 842.5,-282.5 965.5,-282.5 965.5,-257.5 842.5,-257.5"/>
<text text-anchor="start" x="847.5" y="-267.3" font-family="Helvetica,sans-Serif" font-size="14.00" fill="#000000">hash</text>
<text text-anchor="start" x="877.5" y="-267.3" font-family="Helvetica,sans-Serif" font-size="14.00" fill="#000000"> [VARCHAR]</text>
<polygon fill="none" stroke="#000000" points="842.5,-232.5 842.5,-257.5 965.5,-257.5 965.5,-232.5 842.5,-232.5"/>
<text text-anchor="start" x="847.5" y="-242.3" font-family="Helvetica,sans-Serif" font-size="14.00" fill="#000000">run_id</text>
<text text-anchor="start" x="885.5" y="-242.3" font-family="Helvetica,sans-Serif" font-size="14.00" fill="#000000"> [INTEGER]</text>
<polygon fill="none" stroke="#000000" points="842.5,-207.5 842.5,-232.5 965.5,-232.5 965.5,-207.5 842.5,-207.5"/>
<text text-anchor="start" x="847.5" y="-217.3" font-family="Helvetica,sans-Serif" font-size="14.00" fill="#000000">name</text>
<text text-anchor="start" x="882.5" y="-217.3" font-family="Helvetica,sans-Serif" font-size="14.00" fill="#000000"> [VARCHAR]</text>
<polygon fill="none" stroke="#000000" points="842.5,-182.5 842.5,-207.5 965.5,-207.5 965.5,-182.5 842.5,-182.5"/>
<text text-anchor="start" x="847.5" y="-192.3" font-family="Helvetica,sans-Serif" font-size="14.00" fill="#000000">size</text>
<text text-anchor="start" x="872.5" y="-192.3" font-family="Helvetica,sans-Serif" font-size="14.00" fill="#000000"> [INTEGER]</text>
</g>
<!-- runs&#45;&#45;input_files -->
<g id="edge10" class="edge">
<title>runs&#45;&#45;input_files</title>
<path fill="none" stroke="#7f7f7f" stroke-dasharray="5,2" d="M742.2484,-360.7369C772.9245,-341.4778 805.7028,-320.899 833.6408,-303.359"/>
<text text-anchor="start" x="802.6408" y="-292.159" font-family="Times,serif" font-size="14.00" fill="#000000">{0,1}</text>
<text text-anchor="start" x="742.2484" y="-349.5369" font-family="Times,serif" font-size="14.00" fill="#000000">0..N</text>
</g>
<!-- output_files -->
<g id="node11" class="node">
<title>output_files</title>
<polygon fill="none" stroke="#000000" points="842.5,-128.5 842.5,-156.5 965.5,-156.5 965.5,-128.5 842.5,-128.5"/>
<text text-anchor="start" x="858.5" y="-139.7" font-family="Helvetica,sans-Serif" font-weight="bold" font-size="16.00" fill="#000000">output_files</text>
<polygon fill="none" stroke="#000000" points="842.5,-103.5 842.5,-128.5 965.5,-128.5 965.5,-103.5 842.5,-103.5"/>
<text text-anchor="start" x="847.5" y="-113.3" font-family="Helvetica,sans-Serif" text-decoration="underline" font-size="14.00" fill="#000000">id</text>
<text text-anchor="start" x="858.5" y="-113.3" font-family="Helvetica,sans-Serif" font-size="14.00" fill="#000000"> [INTEGER]</text>
<polygon fill="none" stroke="#000000" points="842.5,-78.5 842.5,-103.5 965.5,-103.5 965.5,-78.5 842.5,-78.5"/>
<text text-anchor="start" x="847.5" y="-88.3" font-family="Helvetica,sans-Serif" font-size="14.00" fill="#000000">hash</text>
<text text-anchor="start" x="877.5" y="-88.3" font-family="Helvetica,sans-Serif" font-size="14.00" fill="#000000"> [VARCHAR]</text>
<polygon fill="none" stroke="#000000" points="842.5,-53.5 842.5,-78.5 965.5,-78.5 965.5,-53.5 842.5,-53.5"/>
<text text-anchor="start" x="847.5" y="-63.3" font-family="Helvetica,sans-Serif" font-size="14.00" fill="#000000">run_id</text>
<text text-anchor="start" x="885.5" y="-63.3" font-family="Helvetica,sans-Serif" font-size="14.00" fill="#000000"> [INTEGER]</text>
<polygon fill="none" stroke="#000000" points="842.5,-28.5 842.5,-53.5 965.5,-53.5 965.5,-28.5 842.5,-28.5"/>
<text text-anchor="start" x="847.5" y="-38.3" font-family="Helvetica,sans-Serif" font-size="14.00" fill="#000000">name</text>
<text text-anchor="start" x="882.5" y="-38.3" font-family="Helvetica,sans-Serif" font-size="14.00" fill="#000000"> [VARCHAR]</text>
<polygon fill="none" stroke="#000000" points="842.5,-3.5 842.5,-28.5 965.5,-28.5 965.5,-3.5 842.5,-3.5"/>
<text text-anchor="start" x="847.5" y="-13.3" font-family="Helvetica,sans-Serif" font-size="14.00" fill="#000000">size</text>
<text text-anchor="start" x="872.5" y="-13.3" font-family="Helvetica,sans-Serif" font-size="14.00" fill="#000000"> [INTEGER]</text>
</g>
<!-- runs&#45;&#45;output_files -->
<g id="edge11" class="edge">
<title>runs&#45;&#45;output_files</title>
<path fill="none" stroke="#7f7f7f" stroke-dasharray="5,2" d="M696.126,-333.2211C729.0299,-283.1208 772.018,-221.2078 815,-169.5 820.8502,-162.4621 827.163,-155.3379 833.629,-148.3452"/>
<text text-anchor="start" x="802.629" y="-137.1452" font-family="Times,serif" font-size="14.00" fill="#000000">{0,1}</text>
<text text-anchor="start" x="671.126" y="-322.0211" font-family="Times,serif" font-size="14.00" fill="#000000">0..N</text>
</g>
<!-- settings -->
<g id="node12" class="node">
<title>settings</title>
<polygon fill="none" stroke="#000000" points="28,-643.5 28,-671.5 151,-671.5 151,-643.5 28,-643.5"/>
<text text-anchor="start" x="58.5" y="-654.7" font-family="Helvetica,sans-Serif" font-weight="bold" font-size="16.00" fill="#000000">settings</text>
<polygon fill="none" stroke="#000000" points="28,-618.5 28,-643.5 151,-643.5 151,-618.5 28,-618.5"/>
<text text-anchor="start" x="33" y="-628.3" font-family="Helvetica,sans-Serif" text-decoration="underline" font-size="14.00" fill="#000000">name</text>
<text text-anchor="start" x="68" y="-628.3" font-family="Helvetica,sans-Serif" font-size="14.00" fill="#000000"> [VARCHAR]</text>
<polygon fill="none" stroke="#000000" points="28,-593.5 28,-618.5 151,-618.5 151,-593.5 28,-593.5"/>
<text text-anchor="start" x="33" y="-603.3" font-family="Helvetica,sans-Serif" font-size="14.00" fill="#000000">value</text>
<text text-anchor="start" x="66" y="-603.3" font-family="Helvetica,sans-Serif" font-size="14.00" fill="#000000"> [VARCHAR]</text>
</g>
</g>
</svg>
